<svg width="25" height="24" viewBox="0 0 25 24" fill="none" xmlns="http://www.w3.org/2000/svg">
<g id="ant-design:apple-filled">
<path id="Vector" d="M18.1842 12.5555C18.1748 10.957 18.899 9.75234 20.3615 8.86406C19.5436 7.69219 18.3061 7.04766 16.6748 6.92344C15.1303 6.80156 13.4404 7.82344 12.8217 7.82344C12.1678 7.82344 10.6725 6.96563 9.4959 6.96563C7.06777 7.00313 4.4873 8.90156 4.4873 12.7641C4.4873 13.9055 4.6959 15.0844 5.11309 16.2984C5.6709 17.8969 7.68184 21.8133 9.77949 21.75C10.8764 21.7242 11.6521 20.9719 13.0795 20.9719C14.4646 20.9719 15.1818 21.75 16.4053 21.75C18.5217 21.7195 20.3404 18.1594 20.8701 16.5563C18.0318 15.218 18.1842 12.6375 18.1842 12.5555ZM15.7209 5.40703C16.9092 3.99609 16.8014 2.71172 16.7662 2.25C15.7162 2.31094 14.5021 2.96484 13.8107 3.76875C13.049 4.63125 12.6014 5.69766 12.6975 6.9C13.8318 6.98672 14.8678 6.40313 15.7209 5.40703Z" fill="black"/>
</g>
</svg>
