<svg width="111" height="36" viewBox="0 0 111 36" fill="none" xmlns="http://www.w3.org/2000/svg">
<path d="M14.7282 5.57666L17.9466 8.0081L15.9805 10.5097C17.3379 12.0456 17.8382 13.7983 17.8382 15.7294C17.8382 17.9091 17.0161 20.9843 14.1195 22.3068C17.0512 23.7726 17.7649 25.8822 17.7649 28.1352C17.7649 32.9981 14.0463 36 8.93505 36C3.82384 36 0 32.8898 0 28.1352H4.32413C4.32413 30.4233 6.43362 31.9242 8.93505 31.9242C11.4365 31.9242 13.4026 30.5667 13.4026 28.1352C13.4026 25.7038 11.1146 24.5948 8.93505 24.5948C3.4319 24.5948 0 21.236 0 15.7294C0 10.2228 4.00229 6.79079 8.93823 6.79079C10.3339 6.79079 11.7615 6.96924 12.9788 7.79141L14.7282 5.57666ZM4.32413 15.7294C4.32413 18.8046 6.39857 20.6274 8.93505 20.6274C11.4365 20.6274 13.5109 18.7695 13.5109 15.7294C13.5109 12.6893 11.4397 10.7614 8.93823 10.7614C6.39856 10.7614 4.32413 12.6543 4.32413 15.7294Z" fill="#112211"/>
<path d="M50.5673 0V24.99H46.2432V0H50.5673Z" fill="#112211"/>
<path d="M69.9987 16.1948C69.9987 21.2712 66.5317 25.382 60.8119 25.382C55.0921 25.382 51.6602 21.2712 51.6602 16.1948C51.6602 11.1534 55.1622 7.00757 60.7768 7.00757C66.3915 7.00757 69.9987 11.1534 69.9987 16.1948ZM56.0193 16.1948C56.0193 18.8748 57.6285 21.3795 60.8087 21.3795C63.9889 21.3795 65.5981 18.878 65.5981 16.1948C65.5981 13.5498 63.7403 10.975 60.8087 10.975C57.6636 10.975 56.0193 13.5498 56.0193 16.1948Z" fill="#112211"/>
<path d="M75.4512 0V9.76082C76.4869 7.93804 79.3834 6.93742 81.2412 6.93742C86.3874 6.93742 90.2145 10.0827 90.2145 16.1597C90.2145 21.9499 86.3173 25.382 81.136 25.382C78.9915 25.382 76.8119 24.6681 75.4512 22.5586L75.1645 24.99H71.0889V0H75.4512ZM75.7348 16.1597C75.7348 19.34 78.0929 21.3444 80.846 21.3444C83.6343 21.3444 85.8521 19.2348 85.8521 16.1597C85.8521 12.9794 83.6343 11.0132 80.846 11.0132C78.0961 11.01 75.7348 13.0845 75.7348 16.1597Z" fill="#112211"/>
<path d="M96.6982 19.2317C97.7115 21.182 100.031 22.0137 102.922 20.9621C104.432 20.4108 106.207 19.1202 106.793 17.8041L110.356 19.4357C109.269 21.8863 106.733 23.7983 104.212 24.716C98.5018 26.7938 93.8239 24.5025 91.8929 19.1935C90.0575 14.1554 92.1638 9.27973 97.5395 7.3231C103.081 5.30593 107.791 7.47288 109.632 14.525L96.6982 19.2317ZM104.467 12.562C103.415 10.5098 101.344 10.0477 98.9925 10.9017C96.7747 11.708 95.3535 13.4447 95.5319 15.8124L104.467 12.562Z" fill="#112211"/>
<path fill-rule="evenodd" clip-rule="evenodd" d="M39.7626 11.9898C38.3489 9.04029 35.4017 7.00757 31.4702 7.00757C25.8555 7.00757 22.3535 11.1534 22.3535 16.1948C22.3535 19.4133 23.733 22.2436 26.2006 23.8843C26.3412 23.7791 26.4258 23.7108 26.4258 23.7108C27.6566 22.9077 28.8573 22.0624 30.0258 21.1765C27.8244 20.5287 26.7127 18.4223 26.7127 16.1948C26.7127 13.5498 28.3601 10.975 31.5021 10.975C34.269 10.975 36.0793 13.2687 36.274 15.7501C37.4868 14.5464 38.6507 13.2921 39.7626 11.9898ZM31.0601 25.3736C34.5418 22.9057 37.7611 20.0867 40.6652 16.9631C40.3328 21.6796 36.9335 25.382 31.5052 25.382C31.3553 25.382 31.2069 25.3792 31.0601 25.3736Z" fill="#FF8500"/>
<path d="M43.3179 4.53791C38.8631 2.89995 35.6607 6.42443 35.6607 6.42443L38.6974 8.18985C39.835 7.53658 40.3417 8.17073 40.4723 8.51808C40.5648 8.76346 40.4405 9.03114 40.3417 9.17772L39.6024 10.1114C35.6129 14.9233 30.9223 19.1043 25.6868 22.5204C25.6868 22.5204 24.1063 23.7951 23.265 23.8142C22.5576 23.8301 22.2422 23.2342 22.838 22.3802L21.3722 19.0724C21.3722 19.0724 17.558 21.5707 18.2972 25.962C18.6095 27.8167 20.3525 29.1359 22.2039 28.8013C23.1503 28.6324 24.3198 28.1704 25.7505 27.2239L28.3826 25.5031C33.6181 22.0806 38.3119 17.8869 42.2982 13.0687L43.2032 11.9756C44.567 10.4237 45.1789 9.14586 45.386 8.13568C45.7046 6.59014 44.7901 5.07965 43.3179 4.53791Z" fill="#FF8500"/>
</svg>
